<svg width="551" height="598" viewBox="0 0 551 598" fill="none" xmlns="http://www.w3.org/2000/svg">
<path d="M84.0945 528.51C85.5191 543.793 88.0295 577.226 98.2863 588.619C106.714 597.982 121.113 597.708 133.673 597.079C205.633 593.462 219.086 594.075 255.868 597.431C265.696 598.326 307.619 597.845 317.475 597.331C328.872 596.727 339.868 593.155 351.008 590.67C372.48 585.889 394.58 585.143 416.489 583.374C420.767 583.03 425.28 582.546 428.732 580.002C432.184 577.458 433.972 573.245 435.591 569.23C459.774 509.49 481.72 448.903 501.43 387.47C506.336 372.187 510.998 355.06 504.032 340.61C458.243 351.46 412.178 362.356 365.213 365.152C344.901 366.358 324.536 366.043 304.192 365.637C281.663 365.19 259.134 364.63 236.605 363.959C214.077 363.288 191.555 362.505 169.04 361.61C146.36 360.713 123.682 359.7 101.008 358.574C95.4195 358.297 89.8325 358.013 84.2471 357.72C79.4408 357.467 74.3373 356.664 69.5309 357.269C60.8968 358.362 60.009 364.78 61.0744 372.204C64.258 394.467 64.7616 408.74 66.5578 434.003C69.3161 472.846 79.0941 474.847 84.0945 528.51Z" fill="#EB763C"/>
<path d="M351.756 439.782C351.345 439.784 350.948 439.633 350.643 439.357C350.337 439.081 350.145 438.701 350.104 438.291C349.068 427.843 351.9 417.576 354.646 407.675C357.19 398.461 359.824 388.937 359.188 379.503C359.174 379.286 359.203 379.068 359.273 378.861C359.343 378.655 359.453 378.464 359.596 378.3C359.74 378.136 359.914 378.002 360.109 377.906C360.304 377.81 360.516 377.753 360.733 377.739C360.95 377.724 361.167 377.753 361.373 377.824C361.579 377.894 361.769 378.004 361.932 378.148C362.095 378.292 362.229 378.466 362.325 378.662C362.421 378.858 362.477 379.07 362.492 379.288C363.148 389.281 360.427 399.083 357.821 408.557C355.162 418.181 352.412 428.133 353.387 437.972C353.429 438.408 353.298 438.844 353.021 439.184C352.744 439.523 352.344 439.738 351.909 439.782C351.858 439.786 351.807 439.786 351.756 439.782Z" fill="white"/>
<path d="M344.224 476.505H344.142C343.925 476.492 343.713 476.438 343.517 476.343C343.322 476.249 343.147 476.116 343.002 475.954C342.858 475.792 342.746 475.602 342.675 475.397C342.603 475.191 342.573 474.974 342.585 474.756C342.994 467.502 344.414 460.341 346.805 453.483C346.956 453.077 347.26 452.746 347.651 452.562C348.042 452.378 348.49 452.355 348.897 452.498C349.305 452.641 349.641 452.939 349.833 453.327C350.024 453.716 350.057 454.164 349.923 454.576C347.636 461.143 346.277 467.998 345.884 474.943C345.86 475.367 345.674 475.766 345.365 476.056C345.056 476.347 344.648 476.507 344.224 476.505Z" fill="white"/>
<path d="M329.252 562.917C328.993 562.917 328.738 562.857 328.506 562.74C328.275 562.623 328.074 562.454 327.921 562.245C327.767 562.036 327.664 561.794 327.62 561.538C327.577 561.282 327.594 561.019 327.67 560.771C331.771 547.377 333.067 534.766 334.327 522.569C335.392 512.212 336.391 502.418 338.997 492.376C339.051 492.165 339.146 491.967 339.277 491.793C339.407 491.619 339.57 491.473 339.757 491.362C339.944 491.252 340.151 491.179 340.366 491.149C340.581 491.118 340.8 491.13 341.01 491.185C341.22 491.239 341.417 491.335 341.591 491.466C341.764 491.597 341.91 491.76 342.02 491.948C342.131 492.136 342.203 492.343 342.233 492.559C342.263 492.774 342.251 492.994 342.197 493.205C339.662 503.002 338.666 512.676 337.613 522.909C336.338 535.259 335.02 548.035 330.829 561.74C330.727 562.08 330.518 562.378 330.234 562.589C329.95 562.801 329.606 562.916 329.252 562.917Z" fill="white"/>
<path d="M320.449 591.606C320.091 591.606 319.742 591.489 319.456 591.274C319.17 591.058 318.961 590.755 318.862 590.41C318.762 590.065 318.777 589.697 318.904 589.362C319.03 589.026 319.262 588.741 319.565 588.549C322.086 586.93 323.953 584.466 324.834 581.597C324.897 581.388 325 581.195 325.137 581.026C325.275 580.858 325.444 580.718 325.636 580.616C325.827 580.513 326.036 580.449 326.252 580.427C326.468 580.406 326.686 580.428 326.894 580.491C327.102 580.554 327.295 580.657 327.463 580.795C327.631 580.933 327.77 581.103 327.872 581.295C327.975 581.487 328.038 581.697 328.059 581.914C328.081 582.131 328.059 582.35 327.997 582.558C326.88 586.187 324.517 589.302 321.328 591.349C321.065 591.516 320.76 591.605 320.449 591.606Z" fill="white"/>
<path d="M437.391 460.443C436.958 460.444 436.527 460.385 436.111 460.269C433.146 459.44 432.233 456.08 431.354 452.84C431.147 452.086 430.941 451.312 430.706 450.603C429.764 447.703 428.926 444.691 428.121 441.787C426.349 435.432 424.52 428.857 421.477 423.037C420.783 421.707 420.003 420.377 419.165 419.08C412.331 408.532 401.859 400.91 391.73 393.539L391.536 393.399C390.71 392.798 389.554 391.973 388.179 390.996C377.856 383.659 366.654 375.51 363.966 371.603C362.434 369.378 362.054 367.46 362.838 365.931C364.246 363.172 368.595 363.085 371.77 363.031H372.616C377.315 362.886 382.601 362.091 387.713 361.32C391.396 360.765 395.207 360.193 398.696 359.883C415.155 358.422 431.517 356.026 447.705 352.707C463.739 349.414 479.573 345.212 495.133 340.121C498.003 339.185 501.93 337.901 505.51 339.375C507.479 340.204 508.9 341.617 510.428 343.266C516.386 349.7 521.184 357.248 525.825 364.548C531.775 373.91 537.932 383.605 546.471 390.623C549.729 393.303 551.075 395.516 550.708 397.579C550.241 400.234 547.202 401.307 544.758 402.136C544.163 402.347 543.597 402.55 543.106 402.745C536.705 405.471 531.178 409.915 527.13 415.588C526.193 416.922 525.309 418.363 524.455 419.76C522.778 422.494 521.048 425.319 518.702 427.701C511.204 435.32 500.307 436.157 489.769 436.969C486.313 437.234 482.75 437.508 479.401 438.026C467.967 439.799 456.814 445.553 447.156 454.663C442.973 458.62 439.885 460.443 437.391 460.443ZM424.4 421.5C427.609 427.631 429.483 434.38 431.3 440.901C432.101 443.772 432.927 446.738 433.848 449.601C434.1 450.384 434.323 451.2 434.537 451.987C435.149 454.228 435.842 456.768 437.015 457.099C437.655 457.277 439.695 457.17 444.906 452.256C455.055 442.682 466.811 436.629 478.906 434.753C482.37 434.218 486.012 433.924 489.53 433.667C499.919 432.868 509.734 432.114 516.37 425.382C518.434 423.269 520.007 420.725 521.655 418.032C522.538 416.59 523.451 415.103 524.45 413.682C528.835 407.49 534.858 402.65 541.838 399.708C542.404 399.468 543.015 399.252 543.663 399.025C544.943 398.577 547.322 397.744 547.454 396.995C547.454 396.883 547.557 395.806 544.37 393.179C535.442 385.817 529.141 375.907 523.05 366.325C518.508 359.149 513.772 351.73 508.02 345.515C506.72 344.115 505.617 342.996 504.267 342.437C501.992 341.501 499.254 342.259 496.17 343.266C480.491 348.392 464.537 352.626 448.383 355.947C432.071 359.292 415.582 361.706 398.998 363.176C395.612 363.479 392.019 364.005 388.216 364.589C383.01 365.372 377.625 366.184 372.732 366.337H371.848C370.473 366.362 366.299 366.449 365.791 367.439C365.688 367.646 365.758 368.359 366.695 369.718C369.28 373.471 383.344 383.48 390.103 388.29C391.491 389.28 392.655 390.109 393.489 390.714L393.683 390.855C404.052 398.403 414.779 406.212 421.948 417.274C422.844 418.658 423.674 420.079 424.425 421.495L424.4 421.5Z" fill="#F3EADA"/>
<path d="M218.251 489.389C219.763 495.972 225.969 500.914 232.642 501.817C239.314 502.721 246.165 499.986 251.132 495.429C254.361 492.463 258.081 488.386 262.235 489.786C265.853 490.992 266.901 495.545 267.269 499.352C268.1 508.026 268.384 516.743 268.12 525.452C268.045 527.826 267.876 530.358 266.468 532.263C264.44 534.994 260.633 535.499 257.247 535.756C233.185 537.598 209.076 538.458 184.921 538.337C181.493 538.337 177.798 538.192 175.089 536.083C171.786 533.527 171.051 528.932 170.547 524.79C168.111 504.125 166.184 483.411 164.766 462.647C164.498 458.744 164.514 454.199 167.533 451.73C169.544 450.073 172.327 449.886 174.916 449.754L201.958 448.37C203.428 448.296 205.15 448.072 205.872 446.784C206.45 445.752 206.112 444.443 205.583 443.386C203.312 438.858 198.043 436.372 195.97 431.749C193.96 427.25 195.636 421.719 199.022 418.144C202.408 414.569 207.181 412.654 211.95 411.47C219.408 409.618 227.91 409.51 234.107 414.067C240.305 418.624 242.308 429.048 236.44 434.023C234.207 435.917 231.267 436.762 228.905 438.489C226.543 440.217 224.809 443.585 226.39 446.05C227.972 448.515 231.63 448.345 234.545 447.848L254.117 444.534C256.69 444.099 259.597 443.734 261.678 445.309C263.639 446.796 264.155 449.485 264.477 451.937C265.324 458.72 265.559 465.565 265.18 472.391C265.031 475.046 264.626 478.008 262.537 479.645C260.039 481.608 256.38 480.701 253.527 479.301C249.984 477.569 246.755 475.208 243.072 473.77C239.859 472.527 236.284 472.357 232.869 472.167C227.79 471.885 224.041 473.07 221.088 477.42C218.697 480.908 217.265 485.097 218.251 489.389Z" fill="#F3EADA"/>
<path d="M171.315 466.031C170.555 476.036 172.294 486.073 176.373 495.234C176.84 496.274 177.587 497.463 178.718 497.409C180.06 497.343 180.601 495.653 180.696 494.306C181.258 486.302 178.578 477.95 181.254 470.385C182.03 468.186 183.244 466.131 183.703 463.84C184.161 461.549 183.62 458.819 181.638 457.625C179.656 456.432 176.988 457.211 175.366 458.835C173.743 460.459 172.954 462.734 172.335 464.954L171.315 466.031Z" fill="white"/>
<path d="M442.251 516.405C442.099 516.404 441.947 516.383 441.801 516.343C441.592 516.283 441.397 516.183 441.226 516.048C441.056 515.914 440.914 515.746 440.808 515.556C440.702 515.366 440.635 515.157 440.61 514.941C440.584 514.725 440.602 514.505 440.661 514.296C443.18 505.38 446.566 496.37 450.484 485.938C453.168 478.787 456.216 470.684 459.441 461.375C459.512 461.169 459.622 460.98 459.766 460.817C459.91 460.654 460.085 460.522 460.28 460.427C460.475 460.332 460.687 460.276 460.904 460.263C461.12 460.25 461.337 460.28 461.542 460.352C461.747 460.423 461.936 460.534 462.099 460.678C462.261 460.823 462.393 460.998 462.488 461.194C462.582 461.39 462.638 461.602 462.65 461.82C462.663 462.037 462.633 462.255 462.562 462.46C459.321 471.811 456.269 479.939 453.573 487.11C449.683 497.468 446.318 506.416 443.841 515.199C443.743 515.546 443.534 515.852 443.247 516.07C442.96 516.287 442.611 516.405 442.251 516.405Z" fill="white"/>
<path d="M425.375 567.776C425.028 567.777 424.689 567.667 424.409 567.461C424.055 567.203 423.817 566.815 423.749 566.382C423.68 565.948 423.785 565.505 424.041 565.15C429.53 557.547 432.851 548.589 433.65 539.236C433.687 538.796 433.897 538.39 434.233 538.105C434.569 537.821 435.004 537.682 435.442 537.72C435.88 537.757 436.285 537.967 436.569 538.305C436.852 538.642 436.99 539.078 436.953 539.518C436.103 549.47 432.568 559.002 426.729 567.093C426.574 567.307 426.371 567.481 426.135 567.599C425.899 567.718 425.639 567.779 425.375 567.776Z" fill="white"/>
<path d="M354.845 581.721C354.433 581.722 354.036 581.568 353.732 581.29C353.427 581.013 353.237 580.631 353.198 580.22C353.159 579.809 353.275 579.398 353.522 579.068C353.77 578.738 354.131 578.513 354.535 578.436C358.193 577.732 361.782 576.982 365.25 576.253C379.723 573.224 393.39 570.366 411.695 570.796C411.912 570.802 412.126 570.85 412.324 570.938C412.523 571.026 412.702 571.152 412.851 571.31C413.001 571.467 413.119 571.653 413.197 571.856C413.275 572.059 413.313 572.275 413.307 572.493C413.302 572.711 413.254 572.925 413.167 573.124C413.079 573.323 412.953 573.503 412.796 573.653C412.639 573.803 412.454 573.921 412.252 574C412.049 574.078 411.834 574.116 411.617 574.111C393.692 573.696 380.206 576.514 365.923 579.496C362.442 580.226 358.842 580.98 355.158 581.688C355.055 581.709 354.95 581.72 354.845 581.721Z" fill="white"/>
<path d="M209.964 229.577C179.21 212.078 160.542 175.305 164.543 140.05C168.544 104.794 194.938 73.1547 228.814 63.0171C262.69 52.8794 302.07 64.8441 324.648 92.1373C347.226 119.431 351.694 160.466 335.52 192.005C327.865 206.92 315.469 220.007 299.629 225.405C291.119 228.305 279.764 231.205 279.132 240.195C278.905 243.394 280.296 246.675 279.396 249.749C277.947 254.679 271.799 256.137 266.699 256.609C260.965 257.14 255.217 257.488 249.456 257.653C245.425 257.769 238.394 259.161 234.743 257.082C232.142 255.598 232.08 252.044 231.378 249.45C230.163 244.89 227.513 240.845 223.822 237.917C219.606 234.491 214.638 232.237 209.964 229.577Z" fill="#FFC102"/>
<path d="M250.368 232.059C249.993 232.058 249.629 231.93 249.336 231.694C249.043 231.458 248.839 231.129 248.758 230.762C247.684 225.982 247.309 221.071 247.643 216.183C247.672 215.744 247.875 215.334 248.205 215.044C248.536 214.754 248.968 214.608 249.406 214.638C249.844 214.667 250.252 214.871 250.541 215.202C250.83 215.534 250.976 215.967 250.946 216.407C250.636 220.976 250.988 225.565 251.991 230.033C252.087 230.46 252.011 230.908 251.779 231.279C251.547 231.651 251.178 231.914 250.752 232.013C250.626 232.044 250.497 232.059 250.368 232.059Z" fill="white"/>
<path d="M248.758 204.973C248.331 204.973 247.92 204.807 247.612 204.511C247.305 204.214 247.123 203.81 247.106 203.382C246.738 193.845 245.316 184.378 242.865 175.156C234.145 175.757 222.876 174.895 213.102 168.909C202.321 162.301 196.09 150.39 197.597 139.267C198.452 132.961 202.457 125.943 209.481 124.489C216.505 123.035 223.739 127.638 229.937 137.423C236.656 148.027 241.832 159.539 245.31 171.61L246.045 171.527C250.867 170.955 255.613 169.866 260.204 168.279C260.964 154.674 262.339 140.899 266.753 127.77C268.136 123.652 270.031 118.962 273.591 115.379C277.497 111.447 282.956 109.782 287.494 111.137C290.937 112.164 294.022 114.952 295.958 118.784C299.592 125.972 298.923 135.385 294.125 144.611C288.105 156.19 276.976 165.425 263.383 170.641C263.251 173.242 263.135 175.836 263.016 178.421C262.996 178.86 262.803 179.274 262.479 179.571C262.156 179.868 261.728 180.023 261.29 180.003C260.852 179.984 260.439 179.79 260.144 179.465C259.848 179.141 259.693 178.711 259.712 178.272C259.811 176.134 259.906 173.988 260.014 171.834C255.595 173.27 251.046 174.269 246.433 174.817L246.193 174.846C248.625 184.133 250.039 193.658 250.409 203.253C250.426 203.692 250.269 204.12 249.971 204.442C249.674 204.765 249.261 204.955 248.824 204.973H248.758ZM212.045 127.542C211.41 127.542 210.776 127.608 210.154 127.737C204.741 128.856 201.549 134.73 200.876 139.714C199.563 149.4 205.302 160.242 214.828 166.079C223.628 171.465 233.851 172.372 241.957 171.879C238.569 160.349 233.589 149.35 227.162 139.204C224.297 134.676 218.718 127.542 212.053 127.542H212.045ZM284.207 113.979C281.37 113.979 278.318 115.321 275.948 117.707C272.872 120.806 271.167 125.061 269.903 128.818C265.774 141.094 264.374 154.09 263.606 166.991C275.82 161.986 285.768 153.543 291.218 143.066C293.25 139.155 297.498 129.104 293.035 120.28C291.503 117.256 289.149 115.081 286.573 114.31C285.807 114.086 285.013 113.974 284.215 113.979H284.207Z" fill="white"/>
<path d="M262.339 228.798C261.915 228.799 261.506 228.636 261.199 228.342C260.891 228.049 260.708 227.649 260.687 227.224C260.105 215.206 260.373 203.161 261.488 191.181C261.508 190.963 261.571 190.752 261.673 190.559C261.775 190.365 261.913 190.194 262.081 190.055C262.249 189.915 262.442 189.81 262.651 189.746C262.859 189.681 263.078 189.659 263.295 189.679C263.511 189.7 263.722 189.763 263.915 189.865C264.107 189.967 264.278 190.106 264.417 190.274C264.556 190.443 264.661 190.637 264.725 190.846C264.789 191.055 264.812 191.274 264.791 191.492C263.693 203.316 263.429 215.204 264.003 227.066C264.024 227.505 263.871 227.935 263.576 228.26C263.282 228.586 262.871 228.781 262.434 228.802L262.339 228.798Z" fill="white"/>
<path d="M351.987 62.8472C351.677 62.8465 351.374 62.7584 351.111 62.5928C350.849 62.4272 350.638 62.1909 350.503 61.9108C350.369 61.6308 350.315 61.3183 350.349 61.0092C350.383 60.7 350.502 60.4066 350.695 60.1626C356.768 52.4775 363.313 45.1801 370.292 38.3131C370.445 38.1547 370.629 38.0288 370.831 37.9426C371.034 37.8564 371.252 37.8118 371.472 37.8113C371.692 37.8108 371.91 37.8545 372.114 37.9398C372.317 38.0252 372.501 38.1504 372.655 38.3081C372.809 38.4658 372.93 38.6529 373.011 38.8583C373.092 39.0637 373.132 39.2833 373.127 39.5042C373.122 39.725 373.074 39.9427 372.984 40.1444C372.894 40.3461 372.765 40.5278 372.604 40.6787C365.723 47.4484 359.27 54.6435 353.284 62.2216C353.129 62.4173 352.931 62.5752 352.707 62.6835C352.482 62.7918 352.236 62.8478 351.987 62.8472Z" fill="#FFC102"/>
<path d="M367.096 97.4816C366.714 97.4822 366.344 97.35 366.048 97.1076C365.752 96.8651 365.549 96.5274 365.474 96.1519C365.398 95.7763 365.455 95.3862 365.634 95.0478C365.813 94.7093 366.103 94.4436 366.456 94.2957L386.994 85.5957C387.396 85.4316 387.847 85.433 388.248 85.5997C388.65 85.7665 388.969 86.085 389.138 86.4865C389.307 86.888 389.311 87.34 389.15 87.7447C388.989 88.1495 388.676 88.4743 388.278 88.649L367.736 97.349C367.534 97.4369 367.316 97.482 367.096 97.4816Z" fill="#FFC102"/>
<path d="M443.89 144.176H443.787L378.897 140.248C378.459 140.222 378.049 140.022 377.758 139.693C377.467 139.363 377.318 138.931 377.344 138.492C377.371 138.052 377.57 137.641 377.898 137.349C378.227 137.057 378.657 136.908 379.095 136.934L443.985 140.862C444.423 140.874 444.838 141.061 445.139 141.381C445.44 141.7 445.602 142.127 445.589 142.566C445.577 143.006 445.391 143.422 445.072 143.724C444.753 144.026 444.328 144.189 443.89 144.176Z" fill="#FFC102"/>
<path d="M399.493 180.219C399.332 180.218 399.172 180.193 399.018 180.144L380.677 174.589C380.257 174.461 379.905 174.172 379.699 173.784C379.492 173.396 379.447 172.942 379.574 172.521C379.701 172.101 379.99 171.748 380.376 171.54C380.762 171.333 381.215 171.288 381.635 171.415L399.972 176.975C400.352 177.09 400.678 177.338 400.89 177.674C401.103 178.009 401.188 178.411 401.13 178.804C401.072 179.198 400.874 179.558 400.574 179.817C400.273 180.077 399.89 180.219 399.493 180.219Z" fill="#FFC102"/>
<path d="M394.418 249.119C394.011 249.123 393.617 248.975 393.312 248.705L355.885 214.733C355.724 214.587 355.594 214.411 355.501 214.214C355.408 214.017 355.355 213.804 355.344 213.587C355.333 213.369 355.365 213.152 355.438 212.947C355.511 212.742 355.624 212.554 355.769 212.392C355.915 212.231 356.091 212.1 356.287 212.007C356.483 211.914 356.695 211.86 356.912 211.85C357.129 211.839 357.345 211.871 357.55 211.944C357.754 212.018 357.942 212.13 358.102 212.276L395.529 246.248C395.782 246.472 395.961 246.768 396.041 247.096C396.121 247.425 396.099 247.77 395.979 248.085C395.858 248.401 395.643 248.672 395.365 248.862C395.086 249.052 394.755 249.152 394.418 249.148V249.119Z" fill="#FFC102"/>
<path d="M339.905 255.967C339.534 255.967 339.173 255.842 338.882 255.611C338.591 255.38 338.385 255.058 338.299 254.695L336.234 245.995C336.132 245.568 336.203 245.117 336.432 244.742C336.661 244.367 337.029 244.099 337.455 243.996C337.881 243.894 338.33 243.965 338.703 244.194C339.077 244.424 339.344 244.793 339.447 245.221L341.511 253.921C341.561 254.133 341.569 254.354 341.534 254.57C341.499 254.785 341.421 254.992 341.306 255.178C341.191 255.363 341.041 255.524 340.863 255.651C340.686 255.778 340.485 255.869 340.273 255.917C340.153 255.949 340.029 255.966 339.905 255.967Z" fill="#FFC102"/>
<path d="M158.572 258.163C158.265 258.163 157.964 258.077 157.703 257.914C157.442 257.752 157.231 257.52 157.095 257.244C156.958 256.968 156.9 256.66 156.929 256.353C156.957 256.046 157.07 255.753 157.255 255.507L167 242.519C167.128 242.34 167.291 242.188 167.479 242.073C167.666 241.958 167.875 241.881 168.093 241.848C168.31 241.815 168.532 241.825 168.745 241.879C168.959 241.933 169.159 242.03 169.335 242.162C169.51 242.295 169.658 242.462 169.769 242.652C169.88 242.843 169.951 243.054 169.979 243.273C170.008 243.492 169.992 243.714 169.934 243.927C169.875 244.14 169.775 244.339 169.639 244.512L159.877 257.504C159.725 257.707 159.528 257.872 159.301 257.986C159.075 258.1 158.826 258.161 158.572 258.163Z" fill="#FFC102"/>
<path d="M82.8018 232.059C82.4331 232.059 82.0748 231.936 81.7838 231.709C81.4929 231.482 81.2861 231.164 81.1963 230.805C81.1065 230.446 81.1389 230.067 81.2884 229.729C81.438 229.391 81.6962 229.113 82.0215 228.939C101.017 218.789 120.565 209.716 140.573 201.762C140.775 201.682 140.99 201.642 141.207 201.645C141.424 201.649 141.639 201.695 141.838 201.781C142.037 201.867 142.217 201.992 142.368 202.149C142.519 202.305 142.638 202.489 142.718 202.692C142.798 202.894 142.838 203.11 142.834 203.328C142.831 203.546 142.785 203.761 142.699 203.961C142.613 204.16 142.488 204.341 142.333 204.493C142.177 204.644 141.993 204.764 141.791 204.844C121.896 212.758 102.458 221.786 83.57 231.885C83.3317 232.004 83.0681 232.064 82.8018 232.059Z" fill="#FFC102"/>
<path d="M100.107 187.585C99.7159 187.584 99.3376 187.444 99.0397 187.189C98.7418 186.934 98.5438 186.582 98.4808 186.194C98.4178 185.807 98.4941 185.409 98.6959 185.073C98.8978 184.737 99.2121 184.483 99.5829 184.357L112.557 180.016C112.972 179.877 113.426 179.909 113.818 180.106C114.21 180.302 114.508 180.647 114.646 181.064C114.785 181.481 114.752 181.936 114.557 182.329C114.361 182.722 114.017 183.021 113.601 183.16L100.627 187.502C100.46 187.557 100.284 187.585 100.107 187.585Z" fill="#FFC102"/>
<path d="M122.818 142.063C122.724 142.063 122.63 142.054 122.537 142.038L78.2144 134.448C78.0004 134.412 77.7959 134.334 77.6121 134.218C77.4284 134.102 77.2691 133.951 77.1436 133.773C77.018 133.596 76.9285 133.395 76.8802 133.183C76.8319 132.971 76.8258 132.751 76.8621 132.536C76.8984 132.322 76.9765 132.116 77.0919 131.932C77.2074 131.748 77.3577 131.588 77.5347 131.462C77.7117 131.336 77.9117 131.246 78.1232 131.198C78.3348 131.149 78.5537 131.143 78.7676 131.18L123.074 138.79C123.48 138.862 123.845 139.083 124.097 139.411C124.349 139.739 124.469 140.149 124.435 140.562C124.4 140.974 124.213 141.359 123.91 141.64C123.607 141.921 123.21 142.077 122.797 142.08L122.818 142.063Z" fill="#FFC102"/>
<path d="M136.857 105.233C136.766 105.234 136.675 105.227 136.584 105.212L123.611 103.045C123.395 103.011 123.189 102.935 123.003 102.82C122.817 102.705 122.655 102.555 122.528 102.377C122.4 102.199 122.309 101.998 122.26 101.785C122.21 101.572 122.203 101.351 122.239 101.135C122.275 100.919 122.353 100.712 122.469 100.527C122.586 100.342 122.737 100.181 122.915 100.055C123.093 99.9285 123.295 99.8389 123.508 99.7912C123.721 99.7434 123.941 99.7384 124.156 99.7765L137.13 101.943C137.536 102.015 137.901 102.236 138.152 102.563C138.404 102.891 138.525 103.301 138.491 103.713C138.457 104.125 138.27 104.51 137.968 104.791C137.665 105.072 137.269 105.23 136.857 105.233Z" fill="#FFC102"/>
<path d="M174.358 59.856C174.105 59.8565 173.856 59.7989 173.629 59.6875C173.402 59.5762 173.204 59.4142 173.049 59.2138C162.962 46.1514 157.47 36.573 151.297 21.2527C151.132 20.8451 151.136 20.3886 151.307 19.9839C151.479 19.5791 151.803 19.2591 152.209 19.0943C152.616 18.9294 153.07 18.9333 153.474 19.105C153.877 19.2767 154.196 19.6022 154.361 20.0098C160.393 35.0153 165.782 44.3948 175.671 57.1755C175.939 57.5228 176.059 57.9627 176.004 58.3985C175.949 58.8343 175.724 59.2304 175.378 59.4997C175.087 59.7298 174.728 59.8552 174.358 59.856Z" fill="#FFC102"/>
<path d="M234.087 36.8464C233.761 36.8462 233.442 36.7494 233.171 36.5681C232.9 36.3867 232.688 36.129 232.563 35.8272C231.3 32.787 230.924 29.4498 231.477 26.2033C231.51 25.9853 231.586 25.776 231.701 25.5879C231.816 25.3997 231.967 25.2364 232.145 25.1076C232.324 24.9787 232.526 24.8869 232.74 24.8375C232.954 24.7881 233.176 24.7821 233.393 24.8199C233.609 24.8577 233.816 24.9385 234.001 25.0575C234.187 25.1766 234.346 25.3315 234.471 25.5132C234.595 25.6949 234.682 25.8998 234.727 26.1157C234.772 26.3317 234.773 26.5545 234.731 26.7709C234.284 29.3925 234.587 32.0875 235.606 34.5429C235.776 34.9478 235.779 35.404 235.614 35.8111C235.45 36.2182 235.13 36.5429 234.727 36.7138C234.524 36.7993 234.307 36.8443 234.087 36.8464Z" fill="#FFC102"/>
<path d="M305.505 35.732C305.246 35.7321 304.991 35.6711 304.759 35.5538C304.528 35.4366 304.328 35.2665 304.174 35.0572C304.021 34.8479 303.918 34.6053 303.876 34.3491C303.833 34.0928 303.85 33.83 303.928 33.5819L313.656 2.12506C313.786 1.70478 314.077 1.35344 314.465 1.14833C314.853 0.943218 315.306 0.901135 315.725 1.03134C316.144 1.16154 316.494 1.45337 316.698 1.84261C316.903 2.23186 316.944 2.68664 316.815 3.10692L307.082 34.5637C306.978 34.902 306.769 35.1979 306.485 35.4081C306.201 35.6183 305.858 35.7319 305.505 35.732Z" fill="#FFC102"/>
<path d="M250.583 309.476H250.104C237.646 309.414 230.222 306.85 228.632 302.065C227.645 299.078 229.136 295.776 232.836 292.689C229.809 291.219 227.777 289.205 226.964 286.769C225.754 283.153 227.377 279.097 231.506 275.347C231.919 274.966 232.386 274.585 232.877 274.212C230.474 273.263 228.248 271.673 227.6 268.13C226.53 262.33 232.968 258.643 236.453 256.667C237.008 256.369 237.547 256.042 238.067 255.685C238.143 255.623 238.223 255.566 238.307 255.515C238.806 255.225 250.752 248.423 272.951 247.706C273.389 247.692 273.814 247.854 274.134 248.155C274.453 248.456 274.64 248.872 274.654 249.311C274.667 249.751 274.507 250.178 274.207 250.498C273.907 250.819 273.492 251.007 273.054 251.02C252.796 251.675 241.234 257.69 240.058 258.333C239.426 258.78 238.767 259.187 238.084 259.551C235.33 261.121 230.205 264.041 230.845 267.53C231.324 270.131 233.013 270.919 236.465 271.88C246.132 266.461 262.479 262.877 276.184 265.5H276.225C278.352 265.914 281.936 267.306 282.126 269.912C282.316 272.518 279.177 273.964 276.799 274.8C265.018 278.943 251.256 279.167 236.928 275.43C235.791 276.12 234.718 276.912 233.723 277.796C230.626 280.609 229.338 283.418 230.102 285.709C230.754 287.664 232.815 289.284 235.928 290.407C247.49 282.597 262.066 279.925 279.285 282.461C280.883 282.697 285.132 283.322 285.355 286.189C285.573 288.94 281.556 290.821 279.987 291.31L279.912 291.335C268.023 295.038 255.524 296.363 243.125 295.233C240.891 295.048 238.679 294.653 236.519 294.052C236.255 294.243 235.99 294.442 235.73 294.637C232.662 296.961 231.234 299.285 231.808 301.012C232.633 303.457 237.861 306.092 250.153 306.154C261.612 306.212 274.908 304.202 280.152 302.293C280.564 302.143 281.018 302.163 281.415 302.349C281.812 302.535 282.118 302.872 282.268 303.285C282.417 303.698 282.397 304.154 282.212 304.552C282.026 304.95 281.691 305.258 281.279 305.408C275.812 307.405 262.281 309.476 250.583 309.476ZM240.351 291.546C241.313 291.712 242.333 291.844 243.402 291.96C255.37 293.05 267.435 291.772 278.913 288.199H278.971C280.026 287.859 281.002 287.309 281.841 286.583C281.448 286.376 280.602 286.053 278.781 285.787C263.697 283.534 250.798 285.485 240.351 291.554V291.546ZM241.412 273.098C253.771 275.741 265.539 275.269 275.684 271.685C277.749 270.96 278.471 270.38 278.719 270.127C278.306 269.713 277.014 269.046 275.606 268.768L275.853 267.111L275.544 268.739C264.337 266.614 250.678 269 241.412 273.106V273.098Z" fill="black"/>
<path d="M58.1011 448.731C52.4318 448.731 47.4437 445.93 42.6167 443.225C38.0416 440.656 33.7225 438.253 28.9904 438.088C25.0223 437.972 21.2441 439.463 17.2388 441.05C13.5969 442.487 9.82694 443.979 5.78035 444.236C4.63656 444.31 2.96838 444.285 1.65117 443.241C-0.0872134 441.854 -0.45467 439.467 0.556978 436.157C8.86974 408.879 24.5394 384.438 45.8334 365.538C49.211 362.538 59.7281 355.118 66.9418 352.223L70.6084 350.752L70.6951 350.723C125.027 332.362 182.926 333.281 238.918 334.172C250.934 334.363 263.354 334.562 275.548 334.566H275.779C303.403 334.566 328.921 333.008 353.606 331.5C396.611 328.877 437.23 326.4 484.331 332.155C498.701 333.911 502.913 337.263 504.919 338.874C505.143 339.065 505.379 339.24 505.625 339.4C505.826 339.494 506.006 339.626 506.155 339.791C506.304 339.955 506.418 340.148 506.491 340.357C506.564 340.566 506.594 340.789 506.58 341.01C506.566 341.231 506.508 341.448 506.409 341.646C506.31 341.845 506.172 342.021 506.004 342.165C505.835 342.309 505.64 342.418 505.429 342.485C505.218 342.551 504.996 342.575 504.776 342.554C504.556 342.533 504.342 342.468 504.147 342.363C503.689 342.11 503.259 341.81 502.863 341.468C501.079 340.047 497.375 337.089 483.931 335.444C437.126 329.727 396.656 332.196 353.808 334.81C329.078 336.318 303.502 337.88 275.767 337.88H275.531C263.313 337.88 250.876 337.677 238.852 337.486C183.149 336.6 125.56 335.684 71.777 353.847L68.1515 355.301C61.5448 357.944 51.3664 365.036 48.0052 368.019C27.1667 386.515 11.8328 410.432 3.69922 437.127C3.14179 438.954 3.13766 440.205 3.69922 440.648C4.16169 441.017 5.2104 440.95 5.55312 440.93C9.08357 440.702 12.4489 439.372 16.0124 437.963C20.1415 436.306 24.4319 434.649 29.0731 434.778C34.6268 434.947 39.5075 437.678 44.223 440.329C49.0376 443.03 53.5839 445.582 58.5802 445.408C61.9455 445.292 65.2198 443.9 68.391 442.558C68.5926 442.46 68.8118 442.405 69.0354 442.395C69.259 442.385 69.4822 442.421 69.6917 442.5C69.9011 442.579 70.0922 442.7 70.2536 442.856C70.4149 443.012 70.5431 443.199 70.6302 443.405C70.7173 443.612 70.7616 443.835 70.7604 444.059C70.7592 444.284 70.7127 444.506 70.6233 444.712C70.534 444.918 70.4038 445.103 70.2409 445.257C70.0779 445.411 69.8854 445.53 69.6751 445.607C66.3718 447.003 62.6557 448.582 58.6917 448.718L58.1011 448.731Z" fill="#F3EADA"/>
<path d="M239.409 232.552C238.257 234.312 239.161 241.956 242.122 240.585C247.99 237.863 271.563 237.482 274.61 234.395C276.535 232.444 274.875 227.162 273.471 226.631C269.94 225.297 265.303 225.873 255.897 227.336C252.519 227.862 240.499 230.882 239.409 232.552Z" fill="black"/>
<path d="M241.437 242.403C240.972 242.396 240.515 242.286 240.097 242.081C239.68 241.876 239.312 241.582 239.021 241.218C237.072 238.948 236.767 233.575 238.03 231.644C239.897 228.79 255.492 225.72 255.645 225.695C264.977 224.245 270.031 223.562 274.053 225.078C275.981 225.807 276.762 228.972 276.898 229.598C277.443 232.117 277.039 234.287 275.783 235.559C273.838 237.531 267.785 238.323 258.069 239.454C251.788 240.183 245.293 240.937 242.816 242.088C242.384 242.292 241.914 242.4 241.437 242.403ZM240.764 233.521C240.305 234.553 240.71 238.252 241.499 239.048C244.488 237.693 250.901 236.951 257.689 236.148C263.47 235.476 272.207 234.457 273.438 233.214C273.714 232.933 273.851 232.278 273.826 231.466C273.791 230.276 273.425 229.119 272.769 228.127C269.701 227.021 265.308 227.535 256.153 228.956C252.144 229.598 242.234 232.332 240.764 233.521Z" fill="black"/>
<path d="M156.677 363.06H156.599C147.027 362.605 136.968 362.455 127.24 362.31C111.182 362.07 94.5783 361.826 78.9288 360.239C78.7118 360.217 78.5014 360.152 78.3094 360.049C78.1174 359.945 77.9476 359.804 77.8098 359.635C77.6719 359.466 77.5688 359.271 77.5061 359.061C77.4434 358.852 77.4225 358.632 77.4444 358.414C77.4664 358.196 77.5309 357.985 77.6341 357.793C77.7374 357.6 77.8774 357.43 78.0463 357.291C78.2152 357.153 78.4097 357.05 78.6185 356.987C78.8273 356.924 79.0463 356.903 79.2632 356.925C94.7807 358.511 111.31 358.76 127.298 358.996C137.051 359.141 147.118 359.294 156.764 359.75C157.202 359.761 157.618 359.945 157.92 360.263C158.223 360.582 158.387 361.007 158.376 361.447C158.366 361.886 158.182 362.304 157.865 362.607C157.548 362.91 157.123 363.075 156.685 363.064L156.677 363.06Z" fill="#F3EADA"/>
<path d="M189.71 365.728H182.373C181.935 365.728 181.515 365.554 181.205 365.243C180.895 364.932 180.721 364.511 180.721 364.071C180.721 363.632 180.895 363.21 181.205 362.899C181.515 362.589 181.935 362.414 182.373 362.414H189.71C190.148 362.414 190.569 362.589 190.878 362.899C191.188 363.21 191.362 363.632 191.362 364.071C191.362 364.511 191.188 364.932 190.878 365.243C190.569 365.554 190.148 365.728 189.71 365.728Z" fill="#F3EADA"/>
<path d="M316.67 368.185C316.232 368.193 315.809 368.027 315.493 367.722C315.178 367.417 314.996 366.999 314.988 366.559C314.979 366.12 315.146 365.695 315.45 365.378C315.754 365.062 316.17 364.879 316.608 364.871C326.39 364.486 336.313 364.423 346.095 364.68C346.533 364.692 346.948 364.877 347.25 365.196C347.552 365.515 347.715 365.941 347.703 366.381C347.692 366.82 347.507 367.237 347.189 367.54C346.871 367.843 346.446 368.006 346.008 367.995C336.296 367.738 326.448 367.8 316.736 368.181L316.67 368.185Z" fill="#F3EADA"/>
</svg>
