<svg width="152" height="57" viewBox="0 0 152 57" fill="none" xmlns="http://www.w3.org/2000/svg">
<mask id="mask0_0_74" style="mask-type:luminance" maskUnits="userSpaceOnUse" x="1" y="40" width="59" height="12">
<path d="M1.82874 40.8164H59.28V51.1734H1.82874V40.8164Z" fill="white"/>
</mask>
<g mask="url(#mask0_0_74)">
<path d="M59.0385 48.6299C58.8278 50.235 57.7828 50.7506 56.2816 50.7387C56.2578 50.7387 56.2341 50.7387 56.2113 50.7387C52.2797 51.2662 47.8444 50.809 43.8554 50.8446C39.4438 50.8793 35.0194 50.8911 30.6078 50.8911C21.9717 50.8911 13.3356 50.8446 4.69952 50.9149C2.52937 50.9268 2.01281 48.8061 2.05932 46.6735C2.04843 46.6033 2.03656 46.533 2.02468 46.4628C2.01281 46.3104 2.00093 46.1698 2.01281 46.0174C1.97718 45.8888 1.9663 45.7601 1.97718 45.5959C2.08307 43.9205 2.18895 42.0225 3.64364 41.3318C3.84354 41.1675 4.11369 41.0626 4.46499 41.0972C4.48874 41.0972 4.50062 41.0972 4.52437 41.0972C4.59463 41.0854 4.65301 41.0745 4.72327 41.0745C13.7235 41.0745 22.7466 41.1912 31.7696 41.215C35.9822 41.2259 40.183 41.215 44.3947 41.1794C48.2432 41.1556 52.1975 40.8162 56.0233 41.1329C57.6897 41.2734 58.7337 41.5782 58.9445 43.3822C59.1325 45.0922 59.2612 46.9318 59.0385 48.6299Z" fill="#EB763C"/>
</g>
<path d="M3.09541 33.1221C2.87374 33.1221 2.67979 33.039 2.51354 32.8727C2.34729 32.7065 2.26416 32.5125 2.26416 32.2908V10.6823C2.26416 10.4369 2.34135 10.2311 2.4977 10.0648C2.65307 9.89855 2.85197 9.81543 3.09541 9.81543H18.81C19.0554 9.81543 19.2612 9.89855 19.4275 10.0648C19.5937 10.2311 19.6769 10.4369 19.6769 10.6823V13.9796C19.6769 14.223 19.5937 14.4219 19.4275 14.5773C19.2612 14.7337 19.0554 14.8108 18.81 14.8108H8.28874V19.0383H18.0777C18.3231 19.0383 18.529 19.1215 18.6952 19.2877C18.8615 19.454 18.9446 19.6598 18.9446 19.9052V22.9333C18.9446 23.1788 18.8615 23.3846 18.6952 23.5508C18.529 23.7171 18.3231 23.8002 18.0777 23.8002H8.28874V28.1267H19.0792C19.3216 28.1267 19.5265 28.2118 19.6927 28.38C19.859 28.5463 19.9421 28.7511 19.9421 28.9936V32.2908C19.9421 32.5343 19.859 32.7332 19.6927 32.8886C19.5265 33.0449 19.3216 33.1221 19.0792 33.1221H3.09541Z" fill="#080708"/>
<path d="M27.3651 33.1221C27.1434 33.1221 26.9494 33.039 26.7832 32.8727C26.6169 32.7065 26.5338 32.5125 26.5338 32.2908V10.6823C26.5338 10.4369 26.611 10.2311 26.7674 10.0648C26.9227 9.89855 27.1216 9.81543 27.3651 9.81543H36.1209C39.4063 9.81543 41.9594 10.5982 43.7803 12.1627C45.6011 13.7282 46.5551 15.9766 46.6421 18.9077C46.6659 19.549 46.6778 20.403 46.6778 21.4688C46.6778 22.5355 46.6659 23.3787 46.6421 23.9981C46.4205 30.0811 42.9688 33.1221 36.2871 33.1221H27.3651ZM36.1209 28.1267C37.5192 28.1267 38.5513 27.7942 39.2163 27.1292C39.8833 26.4642 40.2395 25.3994 40.2851 23.9348C40.3296 23.2916 40.3524 22.4583 40.3524 21.4371C40.3524 20.4158 40.3296 19.5945 40.2851 18.9711C40.2395 17.552 39.8556 16.504 39.1332 15.8281C38.4128 15.1503 37.3529 14.8108 35.9546 14.8108H32.7919V28.1267H36.1209Z" fill="#080708"/>
<path d="M63.2549 33.4546C60.1041 33.4546 57.6341 32.6896 55.8449 31.1588C54.0577 29.6259 53.1651 27.3291 53.1651 24.2673V10.6823C53.1651 10.4369 53.2423 10.2311 53.3986 10.0648C53.554 9.89855 53.7549 9.81543 54.0003 9.81543H58.5603C58.8057 9.81543 59.0116 9.89855 59.1778 10.0648C59.3441 10.2311 59.4272 10.4369 59.4272 10.6823V24.2C59.4272 25.5755 59.7537 26.6067 60.4089 27.2954C61.063 27.9842 62.0011 28.3286 63.2232 28.3286C64.4424 28.3286 65.3785 27.9792 66.0336 27.2796C66.6878 26.5809 67.0153 25.5538 67.0153 24.2V10.6823C67.0153 10.4369 67.0984 10.2311 67.2647 10.0648C67.4329 9.89855 67.6387 9.81543 67.8822 9.81543H72.4105C72.6559 9.81543 72.8618 9.89855 73.028 10.0648C73.1943 10.2311 73.2774 10.4369 73.2774 10.6823V24.2673C73.2774 27.3291 72.3887 29.6259 70.6134 31.1588C68.8371 32.6896 66.384 33.4546 63.2549 33.4546Z" fill="#080708"/>
<path d="M81.3309 33.1221C81.1093 33.1221 80.9153 33.039 80.7491 32.8727C80.5828 32.7065 80.4997 32.5125 80.4997 32.2908V10.6823C80.4997 10.4369 80.5769 10.2311 80.7332 10.0648C80.8886 9.89855 81.0875 9.81543 81.3309 9.81543H96.812C97.0574 9.81543 97.2632 9.89855 97.4295 10.0648C97.5957 10.2311 97.6789 10.4369 97.6789 10.6823V14.2131C97.6789 14.4566 97.5957 14.6555 97.4295 14.8108C97.2632 14.9672 97.0574 15.0444 96.812 15.0444H86.6272V19.6717H96.147C96.3924 19.6717 96.5982 19.7548 96.7645 19.9211C96.9307 20.0873 97.0139 20.2931 97.0139 20.5386V24.0654C97.0139 24.3108 96.9307 24.5117 96.7645 24.6671C96.5982 24.8205 96.3924 24.8967 96.147 24.8967H86.6272V32.2908C86.6272 32.5125 86.549 32.7065 86.3937 32.8727C86.2373 33.039 86.0374 33.1221 85.792 33.1221H81.3309Z" fill="#080708"/>
<path d="M110.894 33.1221C110.673 33.1221 110.479 33.039 110.313 32.8727C110.146 32.7065 110.063 32.5125 110.063 32.2908V25.1975L102.372 10.8802C102.306 10.7694 102.273 10.6487 102.273 10.5161C102.273 10.3399 102.344 10.1786 102.487 10.0331C102.631 9.88866 102.793 9.81543 102.97 9.81543H107.368C107.676 9.81543 107.931 9.89361 108.131 10.049C108.331 10.2053 108.476 10.3716 108.563 10.5477L113.194 18.9077L117.821 10.5477C117.909 10.3716 118.052 10.2053 118.253 10.049C118.453 9.89361 118.708 9.81543 119.017 9.81543H123.415C123.591 9.81543 123.751 9.88866 123.894 10.0331C124.038 10.1786 124.111 10.3399 124.111 10.5161C124.111 10.6487 124.078 10.7694 124.012 10.8802L116.321 25.1975V32.2908C116.321 32.5343 116.238 32.7332 116.072 32.8886C115.906 33.0449 115.701 33.1221 115.458 33.1221H110.894Z" fill="#080708"/>
<path d="M68.3424 48.5322C68.0494 48.5322 67.804 48.4788 67.6061 48.3739C67.4102 48.269 67.2538 48.1364 67.1351 47.9781V48.2868C67.1351 48.3373 67.1192 48.3779 67.0876 48.4095C67.0559 48.4412 67.0143 48.457 66.9649 48.457H66.6244C66.5769 48.457 66.5374 48.4412 66.5057 48.4095C66.474 48.3779 66.4582 48.3373 66.4582 48.2868V43.3943C66.4582 43.3449 66.474 43.3033 66.5057 43.2716C66.5374 43.24 66.5769 43.2241 66.6244 43.2241H66.9886C67.0361 43.2241 67.0737 43.24 67.1034 43.2716C67.1351 43.3033 67.1509 43.3449 67.1509 43.3943V45.0885C67.2716 44.9361 67.429 44.8075 67.6219 44.7045C67.8169 44.6016 68.0574 44.5502 68.3424 44.5502C68.6194 44.5502 68.854 44.5996 69.0469 44.6966C69.2419 44.7916 69.4012 44.9222 69.5259 45.0885C69.6526 45.2547 69.7476 45.4447 69.8109 45.6585C69.8742 45.8703 69.9108 46.09 69.9217 46.3195C69.9267 46.3987 69.9296 46.4729 69.9296 46.5412C69.9296 46.6105 69.9267 46.6837 69.9217 46.7629C69.9108 46.9984 69.8742 47.221 69.8109 47.4318C69.7476 47.6436 69.6526 47.8316 69.5259 47.9979C69.4012 48.1621 69.2419 48.2928 69.0469 48.3897C68.854 48.4847 68.6194 48.5322 68.3424 48.5322ZM68.188 47.9345C68.4433 47.9345 68.6442 47.8791 68.7896 47.7683C68.9341 47.6575 69.039 47.513 69.1024 47.3329C69.1657 47.1538 69.2023 46.9608 69.2132 46.755C69.2181 46.6125 69.2181 46.47 69.2132 46.3275C69.2023 46.1216 69.1657 45.9296 69.1024 45.7495C69.039 45.5704 68.9341 45.425 68.7896 45.3141C68.6442 45.2033 68.4433 45.1479 68.188 45.1479C67.9584 45.1479 67.7664 45.2023 67.614 45.3102C67.4606 45.419 67.3458 45.5576 67.2696 45.7258C67.1954 45.892 67.1558 46.0613 67.1509 46.2325C67.145 46.3096 67.143 46.4027 67.143 46.5135C67.143 46.6243 67.145 46.7193 67.1509 46.7985C67.1588 46.9806 67.1984 47.1587 67.2696 47.3329C67.3409 47.507 67.4517 47.6515 67.6021 47.7643C67.7526 47.8781 67.9475 47.9345 68.188 47.9345Z" fill="#080708"/>
<path d="M73.3305 49.8584C73.291 49.8584 73.2563 49.8426 73.2276 49.8109C73.1979 49.7812 73.1841 49.7486 73.1841 49.7119C73.1841 49.6902 73.1861 49.6694 73.192 49.6486C73.1969 49.6298 73.2058 49.6061 73.2197 49.5774L73.7897 48.2276L72.3805 44.9065C72.3568 44.8462 72.3449 44.8036 72.3449 44.7799C72.3449 44.7353 72.3588 44.6987 72.3885 44.669C72.4171 44.6403 72.4538 44.6255 72.4993 44.6255H72.8595C72.9149 44.6255 72.9545 44.6374 72.9782 44.6611C73.002 44.6849 73.0218 44.7146 73.0376 44.7482L74.1578 47.4319L75.3057 44.7482C75.3216 44.7146 75.3424 44.6849 75.3691 44.6611C75.3948 44.6374 75.4364 44.6255 75.4918 44.6255H75.8362C75.8807 44.6255 75.9173 44.6403 75.947 44.669C75.9757 44.6987 75.9905 44.7324 75.9905 44.7719C75.9905 44.7957 75.9787 44.8412 75.9549 44.9065L73.861 49.7317C73.8471 49.7654 73.8263 49.7951 73.7976 49.8188C73.7709 49.8446 73.7313 49.8584 73.6789 49.8584H73.3305Z" fill="#080708"/>
<path d="M82.4541 48.457C82.3987 48.457 82.3561 48.4412 82.3274 48.4095C82.2977 48.3779 82.2839 48.3373 82.2839 48.2868V43.4735C82.2839 43.421 82.2977 43.3785 82.3274 43.3468C82.3561 43.3151 82.3987 43.2993 82.4541 43.2993H84.2512C84.8073 43.2993 85.2467 43.4299 85.5693 43.6912C85.8939 43.9505 86.0562 44.3354 86.0562 44.847C86.0562 45.225 85.9612 45.5338 85.7712 45.7733C85.5831 46.0108 85.3278 46.176 85.0032 46.2681L86.1393 48.2274C86.1522 48.2571 86.1591 48.2848 86.1591 48.3106C86.1591 48.3502 86.1432 48.3848 86.1116 48.4135C86.0799 48.4432 86.0443 48.457 86.0047 48.457H85.6524C85.5673 48.457 85.506 48.4353 85.4664 48.3897C85.4268 48.3452 85.3922 48.3017 85.3635 48.2591L84.2947 46.3868H83.0043V48.2868C83.0043 48.3373 82.9885 48.3779 82.9568 48.4095C82.9251 48.4412 82.8826 48.457 82.8301 48.457H82.4541ZM83.0043 45.7614H84.2235C84.5896 45.7614 84.8647 45.6842 85.0468 45.5279C85.2289 45.3725 85.3199 45.1429 85.3199 44.8391C85.3199 44.5383 85.2299 44.3107 85.0507 44.1543C84.8706 43.996 84.5955 43.9168 84.2235 43.9168H83.0043V45.7614Z" fill="#080708"/>
<path d="M90.374 48.5324C89.8614 48.5324 89.4557 48.377 89.1549 48.0653C88.856 47.7516 88.6927 47.3241 88.664 46.7828C88.6581 46.7195 88.6561 46.6383 88.6561 46.5374C88.6561 46.4374 88.6581 46.3553 88.664 46.292C88.6848 45.9416 88.767 45.6349 88.9095 45.3736C89.052 45.1104 89.2469 44.9065 89.4953 44.764C89.7427 44.6215 90.0336 44.5503 90.3661 44.5503C90.7402 44.5503 91.0549 44.6295 91.3082 44.7878C91.5615 44.9441 91.7535 45.1668 91.8861 45.4568C92.0177 45.7477 92.084 46.0861 92.084 46.474V46.6007C92.084 46.6541 92.0682 46.6957 92.0365 46.7274C92.0049 46.7571 91.9633 46.7709 91.9138 46.7709H89.3647C89.3647 46.7739 89.3647 46.7828 89.3647 46.7986C89.3647 46.8145 89.3647 46.8263 89.3647 46.8343C89.3746 47.0381 89.4181 47.2261 89.4953 47.4003C89.5745 47.5745 89.6893 47.716 89.8397 47.8238C89.9901 47.9327 90.1652 47.9861 90.3661 47.9861C90.5423 47.9861 90.6907 47.9604 90.8095 47.907C90.9282 47.8515 91.0232 47.7912 91.0945 47.7249C91.1677 47.6596 91.2182 47.6061 91.2449 47.5665C91.2894 47.5062 91.324 47.4706 91.3478 47.4597C91.3715 47.4468 91.4111 47.4399 91.4665 47.4399H91.8268C91.8713 47.4399 91.9099 47.4547 91.9415 47.4834C91.9732 47.5101 91.9861 47.5468 91.9811 47.5943C91.9752 47.6685 91.9356 47.7585 91.8624 47.8634C91.7882 47.9693 91.6843 48.0732 91.5497 48.1761C91.4151 48.279 91.2469 48.3651 91.047 48.4334C90.849 48.4987 90.6244 48.5324 90.374 48.5324ZM89.3647 46.2603H91.3834V46.2405C91.3834 46.0188 91.3419 45.8229 91.2607 45.6507C91.1815 45.4765 91.0648 45.34 90.9124 45.239C90.759 45.1391 90.5769 45.0886 90.3661 45.0886C90.1544 45.0886 89.9743 45.1391 89.8238 45.239C89.6754 45.34 89.5626 45.4765 89.4834 45.6507C89.4043 45.8229 89.3647 46.0188 89.3647 46.2405V46.2603Z" fill="#080708"/>
<path d="M96.1296 48.4572C96.0553 48.4572 95.997 48.4403 95.9554 48.4057C95.9128 48.3721 95.8802 48.3265 95.8564 48.2711L94.4908 44.8511C94.4829 44.8274 94.4789 44.8036 94.4789 44.7799C94.4789 44.7353 94.4928 44.6987 94.5225 44.669C94.5512 44.6403 94.5878 44.6255 94.6333 44.6255H94.9856C95.041 44.6255 95.0826 44.6403 95.1123 44.669C95.141 44.6987 95.1608 44.7244 95.1717 44.7482L96.2919 47.6536L97.4121 44.7482C97.422 44.7244 97.4408 44.6987 97.4675 44.669C97.4932 44.6403 97.5328 44.6255 97.5862 44.6255H97.9504C97.99 44.6255 98.0256 44.6403 98.0573 44.669C98.0889 44.6987 98.1048 44.7353 98.1048 44.7799C98.1048 44.8036 98.0988 44.8274 98.0889 44.8511L96.7194 48.2711C96.6976 48.3265 96.6659 48.3721 96.6244 48.4057C96.5848 48.4403 96.5254 48.4572 96.4462 48.4572H96.1296Z" fill="#080708"/>
<path d="M100.875 48.4568C100.825 48.4568 100.784 48.441 100.752 48.4093C100.721 48.3777 100.705 48.3371 100.705 48.2866V44.7954C100.705 44.7459 100.721 44.7043 100.752 44.6727C100.784 44.641 100.825 44.6252 100.875 44.6252H101.227C101.277 44.6252 101.318 44.641 101.35 44.6727C101.382 44.7043 101.398 44.7459 101.398 44.7954V48.2866C101.398 48.3371 101.382 48.3777 101.35 48.4093C101.318 48.441 101.277 48.4568 101.227 48.4568H100.875ZM100.816 43.9087C100.765 43.9087 100.725 43.8929 100.693 43.8612C100.661 43.8296 100.645 43.789 100.645 43.7385V43.3427C100.645 43.2932 100.661 43.2506 100.693 43.216C100.725 43.1824 100.765 43.1646 100.816 43.1646H101.279C101.328 43.1646 101.371 43.1824 101.405 43.216C101.439 43.2506 101.457 43.2932 101.457 43.3427V43.7385C101.457 43.789 101.439 43.8296 101.405 43.8612C101.371 43.8929 101.328 43.9087 101.279 43.9087H100.816Z" fill="#080708"/>
<path d="M105.642 48.5324C105.366 48.5324 105.131 48.4977 104.933 48.4295C104.737 48.3582 104.578 48.2741 104.454 48.1761C104.332 48.0791 104.24 47.9812 104.177 47.8832C104.116 47.7862 104.083 47.7071 104.078 47.6457C104.072 47.5933 104.09 47.5527 104.13 47.523C104.169 47.4913 104.209 47.4755 104.248 47.4755H104.581C104.605 47.4755 104.624 47.4795 104.64 47.4874C104.658 47.4953 104.682 47.5171 104.711 47.5507C104.777 47.62 104.848 47.6883 104.925 47.7565C105.004 47.8258 105.101 47.8822 105.218 47.9268C105.334 47.9723 105.477 47.994 105.65 47.994C105.9 47.994 106.106 47.9465 106.267 47.8515C106.43 47.7546 106.512 47.6121 106.512 47.424C106.512 47.3033 106.478 47.2053 106.41 47.1311C106.343 47.0579 106.225 46.9916 106.057 46.9332C105.888 46.8728 105.655 46.8105 105.361 46.7472C105.065 46.6789 104.831 46.5948 104.66 46.4938C104.488 46.3939 104.365 46.2741 104.292 46.1336C104.218 45.9911 104.181 45.8318 104.181 45.6547C104.181 45.4756 104.234 45.3014 104.343 45.1322C104.451 44.961 104.609 44.8214 104.818 44.7126C105.026 44.6047 105.289 44.5503 105.606 44.5503C105.859 44.5503 106.077 44.5839 106.259 44.6493C106.441 44.7126 106.592 44.7918 106.71 44.8868C106.829 44.9818 106.917 45.0768 106.976 45.1718C107.033 45.2648 107.065 45.342 107.071 45.4053C107.076 45.4558 107.061 45.4963 107.027 45.528C106.992 45.5597 106.953 45.5755 106.908 45.5755H106.6C106.565 45.5755 106.536 45.5696 106.512 45.5557C106.491 45.5399 106.471 45.5221 106.453 45.5003C106.403 45.437 106.344 45.3736 106.279 45.3103C106.213 45.247 106.126 45.1945 106.022 45.152C105.916 45.1104 105.777 45.0886 105.606 45.0886C105.361 45.0886 105.176 45.1401 105.052 45.243C104.927 45.3459 104.866 45.4765 104.866 45.6349C104.866 45.7279 104.891 45.811 104.945 45.8843C105 45.9585 105.104 46.0258 105.258 46.0861C105.41 46.1445 105.636 46.2078 105.935 46.2761C106.259 46.3395 106.514 46.4256 106.702 46.5334C106.889 46.6423 107.021 46.767 107.098 46.9095C107.177 47.052 107.217 47.2172 107.217 47.4043C107.217 47.6101 107.158 47.7991 107.039 47.9703C106.922 48.1425 106.746 48.279 106.508 48.382C106.273 48.4819 105.984 48.5324 105.642 48.5324Z" fill="#080708"/>
<path d="M111.433 48.5324C110.92 48.5324 110.514 48.377 110.213 48.0653C109.914 47.7516 109.751 47.3241 109.723 46.7828C109.717 46.7195 109.715 46.6383 109.715 46.5374C109.715 46.4374 109.717 46.3553 109.723 46.292C109.743 45.9416 109.825 45.6349 109.968 45.3736C110.11 45.1104 110.305 44.9065 110.554 44.764C110.801 44.6215 111.092 44.5503 111.425 44.5503C111.799 44.5503 112.113 44.6295 112.367 44.7878C112.62 44.9441 112.812 45.1668 112.945 45.4568C113.076 45.7477 113.143 46.0861 113.143 46.474V46.6007C113.143 46.6541 113.127 46.6957 113.095 46.7274C113.063 46.7571 113.022 46.7709 112.972 46.7709H110.423C110.423 46.7739 110.423 46.7828 110.423 46.7986C110.423 46.8145 110.423 46.8263 110.423 46.8343C110.433 47.0381 110.477 47.2261 110.554 47.4003C110.633 47.5745 110.748 47.716 110.898 47.8238C111.049 47.9327 111.224 47.9861 111.425 47.9861C111.601 47.9861 111.749 47.9604 111.868 47.907C111.987 47.8515 112.082 47.7912 112.153 47.7249C112.226 47.6596 112.277 47.6061 112.303 47.5665C112.348 47.5062 112.383 47.4706 112.406 47.4597C112.43 47.4468 112.47 47.4399 112.525 47.4399H112.885C112.93 47.4399 112.968 47.4547 113 47.4834C113.032 47.5101 113.045 47.5468 113.04 47.5943C113.034 47.6685 112.994 47.7585 112.921 47.8634C112.847 47.9693 112.743 48.0732 112.608 48.1761C112.474 48.279 112.305 48.3651 112.105 48.4334C111.908 48.4987 111.683 48.5324 111.433 48.5324ZM110.423 46.2603H112.442V46.2405C112.442 46.0188 112.4 45.8229 112.319 45.6507C112.24 45.4765 112.123 45.34 111.971 45.239C111.817 45.1391 111.635 45.0886 111.425 45.0886C111.213 45.0886 111.033 45.1391 110.882 45.239C110.734 45.34 110.621 45.4765 110.542 45.6507C110.463 45.8229 110.423 46.0188 110.423 46.2405V46.2603Z" fill="#080708"/>
<path d="M121.438 48.5322C121.016 48.5322 120.655 48.459 120.354 48.3145C120.055 48.1701 119.824 47.9464 119.661 47.6456C119.5 47.3428 119.41 46.9628 119.392 46.5056C119.386 46.2898 119.384 46.082 119.384 45.8841C119.384 45.6842 119.386 45.4754 119.392 45.2587C119.41 44.8075 119.504 44.4314 119.673 44.1306C119.844 43.8278 120.081 43.6002 120.381 43.4497C120.684 43.2993 121.037 43.2241 121.438 43.2241C121.836 43.2241 122.186 43.2993 122.487 43.4497C122.79 43.6002 123.028 43.8278 123.2 44.1306C123.371 44.4314 123.465 44.8075 123.481 45.2587C123.491 45.4754 123.497 45.6842 123.497 45.8841C123.497 46.082 123.491 46.2898 123.481 46.5056C123.465 46.9628 123.375 47.3428 123.212 47.6456C123.047 47.9464 122.816 48.1701 122.515 48.3145C122.214 48.459 121.855 48.5322 121.438 48.5322ZM121.438 47.9029C121.812 47.9029 122.119 47.791 122.357 47.5664C122.594 47.3398 122.723 46.9727 122.745 46.466C122.754 46.2443 122.76 46.0464 122.76 45.8722C122.76 45.6981 122.754 45.5031 122.745 45.2864C122.734 44.949 122.67 44.6749 122.555 44.4631C122.441 44.2523 122.287 44.0979 122.095 44C121.902 43.9 121.684 43.8495 121.438 43.8495C121.193 43.8495 120.973 43.9 120.781 44C120.591 44.0979 120.438 44.2523 120.322 44.4631C120.205 44.6749 120.141 44.949 120.128 45.2864C120.122 45.5031 120.12 45.6981 120.12 45.8722C120.12 46.0464 120.122 46.2443 120.128 46.466C120.146 46.9727 120.276 47.3398 120.516 47.5664C120.758 47.791 121.066 47.9029 121.438 47.9029Z" fill="#080708"/>
<path d="M126.472 48.4572C126.422 48.4572 126.381 48.4413 126.35 48.4097C126.318 48.378 126.302 48.3374 126.302 48.287V44.7957C126.302 44.7462 126.318 44.7047 126.35 44.673C126.381 44.6413 126.422 44.6255 126.472 44.6255H126.817C126.866 44.6255 126.908 44.6413 126.94 44.673C126.971 44.7047 126.987 44.7462 126.987 44.7957V45.1203C127.114 44.9521 127.273 44.8145 127.466 44.7086C127.661 44.6037 127.911 44.5503 128.218 44.5503C128.537 44.5503 128.808 44.6206 129.03 44.7601C129.253 44.9006 129.423 45.0946 129.54 45.342C129.656 45.5903 129.714 45.8793 129.714 46.2088V48.287C129.714 48.3374 129.698 48.378 129.667 48.4097C129.635 48.4413 129.594 48.4572 129.544 48.4572H129.176C129.126 48.4572 129.085 48.4413 129.053 48.4097C129.022 48.378 129.006 48.3374 129.006 48.287V46.2445C129.006 45.9021 128.923 45.6339 128.756 45.4409C128.59 45.246 128.345 45.148 128.02 45.148C127.713 45.148 127.468 45.246 127.284 45.4409C127.102 45.6339 127.011 45.9021 127.011 46.2445V48.287C127.011 48.3374 126.993 48.378 126.959 48.4097C126.928 48.4413 126.888 48.4572 126.841 48.4572H126.472Z" fill="#080708"/>
<path d="M132.769 48.457C132.721 48.457 132.682 48.4412 132.65 48.4095C132.618 48.3779 132.602 48.3373 132.602 48.2868V43.3943C132.602 43.3449 132.618 43.3033 132.65 43.2716C132.682 43.24 132.721 43.2241 132.769 43.2241H133.117C133.17 43.2241 133.21 43.24 133.24 43.2716C133.271 43.3033 133.287 43.3449 133.287 43.3943V48.2868C133.287 48.3373 133.271 48.3779 133.24 48.4095C133.21 48.4412 133.17 48.457 133.117 48.457H132.769Z" fill="#080708"/>
<path d="M136.383 48.4568C136.332 48.4568 136.292 48.441 136.26 48.4093C136.228 48.3777 136.213 48.3371 136.213 48.2866V44.7954C136.213 44.7459 136.228 44.7043 136.26 44.6727C136.292 44.641 136.332 44.6252 136.383 44.6252H136.735C136.785 44.6252 136.826 44.641 136.858 44.6727C136.89 44.7043 136.905 44.7459 136.905 44.7954V48.2866C136.905 48.3371 136.89 48.3777 136.858 48.4093C136.826 48.441 136.785 48.4568 136.735 48.4568H136.383ZM136.323 43.9087C136.273 43.9087 136.232 43.8929 136.201 43.8612C136.169 43.8296 136.153 43.789 136.153 43.7385V43.3427C136.153 43.2932 136.169 43.2506 136.201 43.216C136.232 43.1824 136.273 43.1646 136.323 43.1646H136.787C136.836 43.1646 136.879 43.1824 136.913 43.216C136.947 43.2506 136.965 43.2932 136.965 43.3427V43.7385C136.965 43.789 136.947 43.8296 136.913 43.8612C136.879 43.8929 136.836 43.9087 136.787 43.9087H136.323Z" fill="#080708"/>
<path d="M139.994 48.4572C139.943 48.4572 139.903 48.4413 139.871 48.4097C139.839 48.378 139.823 48.3374 139.823 48.287V44.7957C139.823 44.7462 139.839 44.7047 139.871 44.673C139.903 44.6413 139.943 44.6255 139.994 44.6255H140.338C140.387 44.6255 140.429 44.6413 140.461 44.673C140.492 44.7047 140.508 44.7462 140.508 44.7957V45.1203C140.635 44.9521 140.794 44.8145 140.987 44.7086C141.182 44.6037 141.432 44.5503 141.739 44.5503C142.058 44.5503 142.329 44.6206 142.551 44.7601C142.774 44.9006 142.944 45.0946 143.061 45.342C143.177 45.5903 143.235 45.8793 143.235 46.2088V48.287C143.235 48.3374 143.22 48.378 143.188 48.4097C143.156 48.4413 143.115 48.4572 143.065 48.4572H142.697C142.647 48.4572 142.606 48.4413 142.574 48.4097C142.543 48.378 142.527 48.3374 142.527 48.287V46.2445C142.527 45.9021 142.444 45.6339 142.278 45.4409C142.111 45.246 141.866 45.148 141.541 45.148C141.234 45.148 140.989 45.246 140.805 45.4409C140.623 45.6339 140.532 45.9021 140.532 46.2445V48.287C140.532 48.3374 140.514 48.378 140.48 48.4097C140.449 48.4413 140.409 48.4572 140.362 48.4572H139.994Z" fill="#080708"/>
<path d="M147.648 48.5324C147.135 48.5324 146.729 48.377 146.428 48.0653C146.13 47.7516 145.966 47.3241 145.938 46.7828C145.932 46.7195 145.93 46.6383 145.93 46.5374C145.93 46.4374 145.932 46.3553 145.938 46.292C145.958 45.9416 146.04 45.6349 146.183 45.3736C146.325 45.1104 146.52 44.9065 146.769 44.764C147.016 44.6215 147.307 44.5503 147.64 44.5503C148.014 44.5503 148.328 44.6295 148.582 44.7878C148.835 44.9441 149.027 45.1668 149.16 45.4568C149.291 45.7477 149.358 46.0861 149.358 46.474V46.6007C149.358 46.6541 149.342 46.6957 149.31 46.7274C149.278 46.7571 149.237 46.7709 149.187 46.7709H146.638C146.638 46.7739 146.638 46.7828 146.638 46.7986C146.638 46.8145 146.638 46.8263 146.638 46.8343C146.648 47.0381 146.692 47.2261 146.769 47.4003C146.848 47.5745 146.963 47.716 147.113 47.8238C147.264 47.9327 147.439 47.9861 147.64 47.9861C147.816 47.9861 147.964 47.9604 148.083 47.907C148.202 47.8515 148.297 47.7912 148.368 47.7249C148.441 47.6596 148.492 47.6061 148.518 47.5665C148.563 47.5062 148.598 47.4706 148.621 47.4597C148.645 47.4468 148.685 47.4399 148.74 47.4399H149.1C149.145 47.4399 149.183 47.4547 149.215 47.4834C149.247 47.5101 149.26 47.5468 149.255 47.5943C149.249 47.6685 149.209 47.7585 149.136 47.8634C149.062 47.9693 148.958 48.0732 148.823 48.1761C148.689 48.279 148.52 48.3651 148.32 48.4334C148.123 48.4987 147.898 48.5324 147.648 48.5324ZM146.638 46.2603H148.657V46.2405C148.657 46.0188 148.615 45.8229 148.534 45.6507C148.455 45.4765 148.338 45.34 148.186 45.239C148.032 45.1391 147.85 45.0886 147.64 45.0886C147.428 45.0886 147.248 45.1391 147.097 45.239C146.949 45.34 146.836 45.4765 146.757 45.6507C146.678 45.8229 146.638 46.0188 146.638 46.2405V46.2603Z" fill="#080708"/>
</svg>
