<svg width="80" height="80" viewBox="0 0 80 80" fill="none" xmlns="http://www.w3.org/2000/svg">
<g clip-path="url(#clip0_0_670)">
<path d="M32.5 11.2501H17.5C16.5054 11.2501 15.5516 11.6452 14.8483 12.3485C14.1451 13.0517 13.75 14.0055 13.75 15.0001V65.0001C13.75 65.9947 14.1451 66.9485 14.8483 67.6518C15.5516 68.355 16.5054 68.7501 17.5 68.7501H32.5C33.4946 68.7501 34.4484 68.355 35.1517 67.6518C35.8549 66.9485 36.25 65.9947 36.25 65.0001V15.0001C36.25 14.0055 35.8549 13.0517 35.1517 12.3485C34.4484 11.6452 33.4946 11.2501 32.5 11.2501ZM16.25 23.7501H33.75V56.2501H16.25V23.7501ZM17.5 13.7501H32.5C32.8315 13.7501 33.1495 13.8818 33.3839 14.1162C33.6183 14.3506 33.75 14.6686 33.75 15.0001V21.2501H16.25V15.0001C16.25 14.6686 16.3817 14.3506 16.6161 14.1162C16.8505 13.8818 17.1685 13.7501 17.5 13.7501ZM32.5 66.2501H17.5C17.1685 66.2501 16.8505 66.1184 16.6161 65.884C16.3817 65.6496 16.25 65.3316 16.25 65.0001V58.7501H33.75V65.0001C33.75 65.3316 33.6183 65.6496 33.3839 65.884C33.1495 66.1184 32.8315 66.2501 32.5 66.2501ZM71.1688 61.0564L60.7969 11.7407C60.6965 11.2569 60.5015 10.7976 60.2231 10.3894C59.9447 9.98109 59.5883 9.63189 59.1745 9.36181C58.7607 9.09174 58.2976 8.90612 57.8118 8.81562C57.326 8.72512 56.8271 8.73153 56.3438 8.83448L41.7156 11.9751C40.7433 12.1901 39.895 12.7799 39.3549 13.6166C38.8149 14.4533 38.6267 15.4693 38.8313 16.4439L49.2031 65.7595C49.3035 66.2433 49.4985 66.7026 49.7769 67.1109C50.0553 67.5191 50.4117 67.8683 50.8255 68.1384C51.2393 68.4085 51.7024 68.5941 52.1882 68.6846C52.674 68.7751 53.1729 68.7687 53.6562 68.6657L68.2844 65.522C69.2569 65.3085 70.1057 64.7194 70.6459 63.883C71.1862 63.0466 71.3741 62.0307 71.1688 61.0564ZM45.1656 34.4095L62.2375 30.7439L66.925 52.9532L49.8531 56.622L45.1656 34.4095ZM43.0906 24.547L60.1656 20.8782L61.7281 28.297L44.6531 31.9626L43.0906 24.547ZM42.2437 14.422L56.875 11.2782C56.9613 11.2596 57.0493 11.2502 57.1375 11.2501C57.375 11.2509 57.6073 11.3203 57.8062 11.4501C57.9473 11.5407 58.0687 11.6588 58.1632 11.7973C58.2577 11.9358 58.3233 12.0919 58.3563 12.2564L59.65 18.4376L42.575 22.1001L41.2781 15.9376C41.2055 15.6086 41.2664 15.2642 41.4474 14.9801C41.6285 14.6959 41.9149 14.4952 42.2437 14.422ZM67.7594 63.0782L53.125 66.222C52.8021 66.2908 52.465 66.229 52.1875 66.0501C52.0464 65.9595 51.925 65.8414 51.8306 65.7029C51.7361 65.5644 51.6704 65.4083 51.6375 65.2439L50.35 59.0626L67.425 55.397L68.7219 61.5626C68.7946 61.8912 68.7341 62.2352 68.5537 62.5192C68.3733 62.8033 68.0877 63.0043 67.7594 63.0782Z" fill="white"/>
</g>
<defs>
<clipPath id="clip0_0_670">
<rect width="80" height="80" fill="white"/>
</clipPath>
</defs>
</svg>
