<svg width="80" height="80" viewBox="0 0 80 80" fill="none" xmlns="http://www.w3.org/2000/svg">
<g clip-path="url(#clip0_0_655)">
<path d="M58.7937 9.68751C58.8362 9.52887 58.9095 9.38015 59.0094 9.24984C59.1093 9.11953 59.2339 9.01019 59.3761 8.92806C59.5183 8.84593 59.6753 8.79263 59.8381 8.77119C60.0009 8.74976 60.1664 8.76061 60.325 8.80314C64.9719 10.0531 68.7937 12.9188 71.0812 16.8844C71.1717 17.0267 71.2324 17.1858 71.2598 17.3521C71.2871 17.5185 71.2806 17.6886 71.2405 17.8524C71.2003 18.0161 71.1275 18.1701 71.0264 18.3049C70.9252 18.4398 70.7979 18.5528 70.6519 18.6372C70.506 18.7216 70.3444 18.7755 70.1771 18.7959C70.0097 18.8162 69.84 18.8025 69.6781 18.7555C69.5162 18.7085 69.3654 18.6293 69.2349 18.5225C69.1044 18.4158 68.9969 18.2838 68.9187 18.1344C66.9625 14.7375 63.6781 12.2813 59.6875 11.2063C59.3681 11.1225 59.0949 10.9157 58.9275 10.6312C58.76 10.3466 58.7119 10.0074 58.7937 9.68751ZM24.0937 71.5188C21.0344 69.1063 18.4875 66.0406 16.0813 61.875C15.9083 61.6029 15.6369 61.4082 15.3237 61.3315C15.0106 61.2548 14.6799 61.3021 14.4008 61.4634C14.1217 61.6247 13.9157 61.8877 13.8259 62.1973C13.736 62.507 13.7693 62.8393 13.9188 63.125C16.4875 67.575 19.2313 70.8656 22.5469 73.4813C22.7668 73.6548 23.0386 73.7495 23.3188 73.75C23.5785 73.7501 23.8319 73.6693 24.0436 73.5188C24.2554 73.3683 24.4149 73.1555 24.5002 72.9101C24.5854 72.6647 24.5921 72.3989 24.5192 72.1495C24.4464 71.9002 24.2977 71.6797 24.0937 71.5188ZM70.3437 51.7906C68.8476 57.3646 65.5581 62.2909 60.9832 65.8091C56.4083 69.3272 50.8025 71.2415 45.0312 71.2563C42.7233 71.2546 40.4255 70.9499 38.1969 70.35C34.8636 69.4673 31.7386 67.9319 29.0028 65.8329C26.2671 63.7339 23.975 61.113 22.2594 58.1219L10.3844 37.5531C9.66054 36.2992 9.31512 34.8626 9.38981 33.4167C9.4645 31.9708 9.95611 30.5774 10.8053 29.4047C11.6545 28.2321 12.8249 27.3303 14.1754 26.8082C15.5258 26.2861 16.9985 26.166 18.4156 26.4625L16.2125 22.6438C15.2887 20.9659 15.0418 18.9981 15.5226 17.144C16.0033 15.2899 17.1752 13.69 18.7979 12.6724C20.4207 11.6548 22.3712 11.2966 24.2496 11.6713C26.128 12.046 27.7919 13.1252 28.9 14.6875C29.346 13.3075 30.1825 12.0863 31.3083 11.172C32.4341 10.2577 33.8009 9.68937 35.2431 9.53593C36.6853 9.38248 38.141 9.65048 39.434 10.3075C40.727 10.9644 41.8017 11.9822 42.5281 13.2375L48.4906 23.55C48.9426 22.176 49.7822 20.9621 50.9083 20.0544C52.0344 19.1467 53.399 18.5839 54.8376 18.434C56.2762 18.2841 57.7275 18.5533 59.0166 19.2093C60.3056 19.8653 61.3775 20.88 62.1031 22.1313L67.7281 31.875C69.4604 34.8563 70.584 38.1516 71.0341 41.5702C71.4841 44.9887 71.2516 48.4626 70.35 51.7906H70.3437ZM65.5625 33.125L59.9375 23.3813C59.6137 22.8041 59.1785 22.297 58.6572 21.8893C58.1359 21.4816 57.5388 21.1814 56.9006 21.0062C56.2624 20.831 55.5958 20.7843 54.9394 20.8686C54.283 20.953 53.6499 21.1669 53.0768 21.4978C52.5036 21.8287 52.0019 22.2702 51.6007 22.7965C51.1995 23.3228 50.9067 23.9235 50.7394 24.5638C50.5721 25.2041 50.5335 25.8712 50.626 26.5265C50.7185 27.1818 50.9401 27.8123 51.2781 28.3813L54.4031 33.7938C54.4855 33.9359 54.5391 34.0929 54.5608 34.2558C54.5825 34.4187 54.5718 34.5843 54.5294 34.7431C54.4871 34.9018 54.4138 35.0507 54.3138 35.1811C54.2139 35.3115 54.0892 35.421 53.9469 35.5031C51.3633 36.9948 49.4781 39.4516 48.7057 42.3331C47.9333 45.2146 48.337 48.2849 49.8281 50.8688C49.9102 51.011 49.9635 51.1679 49.9849 51.3307C50.0063 51.4935 49.9954 51.6589 49.9529 51.8175C49.9104 51.9761 49.8371 52.1247 49.7371 52.255C49.6371 52.3852 49.5125 52.4945 49.3703 52.5766C49.2281 52.6586 49.0711 52.7119 48.9084 52.7333C48.7456 52.7547 48.5802 52.7439 48.4216 52.7014C48.263 52.6589 48.1143 52.5855 47.9841 52.4856C47.8539 52.3856 47.7446 52.261 47.6625 52.1188C45.9475 49.1453 45.4048 45.6385 46.1406 42.2857C46.8765 38.9329 48.838 35.9757 51.6406 33.9938L40.3625 14.4719C39.6907 13.341 38.6004 12.5203 37.3277 12.1877C36.0551 11.8552 34.7026 12.0375 33.5635 12.6953C32.4243 13.353 31.5903 14.4332 31.242 15.7017C30.8938 16.9701 31.0595 18.3247 31.7031 19.4719L39.8281 33.5344C39.9939 33.8216 40.0388 34.1628 39.9529 34.4831C39.8671 34.8034 39.6575 35.0764 39.3703 35.2422C39.0831 35.408 38.7419 35.4528 38.4216 35.367C38.1013 35.2811 37.8283 35.0716 37.6625 34.7844L27.0375 16.3813C26.7137 15.8041 26.2785 15.297 25.7572 14.8893C25.2359 14.4816 24.6388 14.1814 24.0006 14.0062C23.3624 13.831 22.6958 13.7843 22.0394 13.8686C21.383 13.953 20.7499 14.1669 20.1768 14.4978C19.6037 14.8287 19.1019 15.2702 18.7007 15.7965C18.2995 16.3228 18.0067 16.9235 17.8394 17.5638C17.6721 18.2041 17.6335 18.8712 17.726 19.5265C17.8185 20.1818 18.0402 20.8123 18.3781 21.3813L30.2531 41.9469C30.3352 42.0891 30.3885 42.2461 30.4099 42.4088C30.4313 42.5716 30.4204 42.737 30.3779 42.8956C30.3354 43.0542 30.2621 43.2029 30.1621 43.3331C30.0621 43.4633 29.9375 43.5726 29.7953 43.6547C29.6531 43.7368 29.4961 43.79 29.3334 43.8115C29.1706 43.8329 29.0052 43.822 28.8466 43.7795C28.688 43.737 28.5393 43.6637 28.4091 43.5637C28.2789 43.4637 28.1696 43.3391 28.0875 43.1969L21.2125 31.2906C20.8887 30.7135 20.4535 30.2063 19.9322 29.7986C19.4109 29.3909 18.8138 29.0908 18.1756 28.9156C17.5374 28.7404 16.8708 28.6936 16.2144 28.778C15.558 28.8624 14.9249 29.0763 14.3518 29.4072C13.7787 29.7381 13.2769 30.1795 12.8757 30.7058C12.4745 31.2321 12.1817 31.8328 12.0144 32.4731C11.8471 33.1135 11.8085 33.7806 11.901 34.4359C11.9935 35.0912 12.2152 35.7216 12.5531 36.2906L24.4281 56.8594C25.952 59.6261 28.0124 62.0611 30.4889 64.0218C32.9653 65.9825 35.808 67.4295 38.8505 68.2781C41.893 69.1268 45.0743 69.36 48.208 68.9641C51.3417 68.5682 54.365 67.5512 57.1009 65.9726C59.8368 64.394 62.2303 62.2856 64.1414 59.7706C66.0524 57.2557 67.4426 54.3848 68.2306 51.326C69.0185 48.2672 69.1884 45.0819 68.7303 41.9567C68.2721 38.8314 67.1952 35.829 65.5625 33.125Z" fill="white"/>
</g>
<defs>
<clipPath id="clip0_0_655">
<rect width="80" height="80" fill="white"/>
</clipPath>
</defs>
</svg>
