<svg width="80" height="80" viewBox="0 0 80 80" fill="none" xmlns="http://www.w3.org/2000/svg">
<g clip-path="url(#clip0_0_663)">
<path d="M42.5 56.25C42.5 56.7445 42.3534 57.2278 42.0787 57.6389C41.804 58.05 41.4135 58.3705 40.9567 58.5597C40.4999 58.7489 39.9972 58.7984 39.5123 58.702C39.0273 58.6055 38.5819 58.3674 38.2322 58.0178C37.8826 57.6681 37.6445 57.2227 37.5481 56.7377C37.4516 56.2528 37.5011 55.7501 37.6903 55.2933C37.8795 54.8365 38.2 54.446 38.6111 54.1713C39.0222 53.8966 39.5056 53.75 40 53.75C40.6631 53.75 41.2989 54.0134 41.7678 54.4822C42.2366 54.9511 42.5 55.587 42.5 56.25ZM40 23.75C33.7969 23.75 28.75 28.2375 28.75 33.75V35C28.75 35.3315 28.8817 35.6495 29.1161 35.8839C29.3506 36.1183 29.6685 36.25 30 36.25C30.3315 36.25 30.6495 36.1183 30.8839 35.8839C31.1183 35.6495 31.25 35.3315 31.25 35V33.75C31.25 29.6156 35.175 26.25 40 26.25C44.825 26.25 48.75 29.6156 48.75 33.75C48.75 37.8844 44.825 41.25 40 41.25C39.6685 41.25 39.3506 41.3817 39.1161 41.6161C38.8817 41.8505 38.75 42.1685 38.75 42.5V45C38.75 45.3315 38.8817 45.6495 39.1161 45.8839C39.3506 46.1183 39.6685 46.25 40 46.25C40.3315 46.25 40.6495 46.1183 40.8839 45.8839C41.1183 45.6495 41.25 45.3315 41.25 45V43.6875C46.875 43.1344 51.25 38.8875 51.25 33.75C51.25 28.2375 46.2031 23.75 40 23.75ZM71.25 40C71.25 46.1807 69.4172 52.2225 65.9834 57.3616C62.5496 62.5006 57.6691 66.506 51.9589 68.8712C46.2487 71.2365 39.9653 71.8553 33.9034 70.6495C27.8415 69.4437 22.2733 66.4675 17.9029 62.0971C13.5325 57.7267 10.5563 52.1585 9.35047 46.0966C8.14469 40.0347 8.76354 33.7513 11.1288 28.0411C13.494 22.331 17.4994 17.4504 22.6384 14.0166C27.7775 10.5828 33.8193 8.75 40 8.75C48.2852 8.7591 56.2285 12.0544 62.0871 17.913C67.9456 23.7715 71.2409 31.7148 71.25 40ZM68.75 40C68.75 34.3138 67.0639 28.7553 63.9048 24.0274C60.7457 19.2994 56.2555 15.6145 51.0022 13.4385C45.7488 11.2624 39.9681 10.6931 34.3912 11.8024C28.8142 12.9117 23.6915 15.6499 19.6707 19.6707C15.6499 23.6914 12.9118 28.8142 11.8024 34.3912C10.6931 39.9681 11.2625 45.7488 13.4385 51.0021C15.6145 56.2555 19.2995 60.7457 24.0274 63.9048C28.7553 67.0638 34.3138 68.75 40 68.75C47.6224 68.7417 54.9303 65.7101 60.3202 60.3202C65.7101 54.9303 68.7417 47.6224 68.75 40Z" fill="white"/>
</g>
<defs>
<clipPath id="clip0_0_663">
<rect width="80" height="80" fill="white"/>
</clipPath>
</defs>
</svg>
