<svg width="80" height="80" viewBox="0 0 80 80" fill="none" xmlns="http://www.w3.org/2000/svg">
<g clip-path="url(#clip0_0_648)">
<path d="M43.75 55C43.75 55.3315 43.6183 55.6495 43.3839 55.8839C43.1495 56.1183 42.8315 56.25 42.5 56.25C41.5055 56.25 40.5516 55.8549 39.8484 55.1516C39.1451 54.4484 38.75 53.4946 38.75 52.5V40C38.75 39.6685 38.6183 39.3505 38.3839 39.1161C38.1495 38.8817 37.8315 38.75 37.5 38.75C37.1685 38.75 36.8506 38.6183 36.6161 38.3839C36.3817 38.1495 36.25 37.8315 36.25 37.5C36.25 37.1685 36.3817 36.8505 36.6161 36.6161C36.8506 36.3817 37.1685 36.25 37.5 36.25C38.4946 36.25 39.4484 36.6451 40.1517 37.3483C40.8549 38.0516 41.25 39.0054 41.25 40V52.5C41.25 52.8315 41.3817 53.1495 41.6161 53.3839C41.8506 53.6183 42.1685 53.75 42.5 53.75C42.8315 53.75 43.1495 53.8817 43.3839 54.1161C43.6183 54.3505 43.75 54.6685 43.75 55ZM38.75 28.75C39.2445 28.75 39.7278 28.6034 40.1389 28.3287C40.5501 28.054 40.8705 27.6635 41.0597 27.2067C41.2489 26.7499 41.2984 26.2472 41.202 25.7623C41.1055 25.2773 40.8674 24.8319 40.5178 24.4822C40.1682 24.1326 39.7227 23.8945 39.2377 23.798C38.7528 23.7016 38.2501 23.7511 37.7933 23.9403C37.3365 24.1295 36.946 24.45 36.6713 24.8611C36.3966 25.2722 36.25 25.7555 36.25 26.25C36.25 26.913 36.5134 27.5489 36.9822 28.0178C37.4511 28.4866 38.087 28.75 38.75 28.75ZM71.25 40C71.25 46.1807 69.4172 52.2225 65.9834 57.3616C62.5496 62.5006 57.6691 66.506 51.9589 68.8712C46.2487 71.2365 39.9653 71.8553 33.9034 70.6495C27.8415 69.4437 22.2733 66.4675 17.9029 62.0971C13.5325 57.7267 10.5563 52.1585 9.35047 46.0966C8.14469 40.0347 8.76354 33.7513 11.1288 28.0411C13.494 22.331 17.4994 17.4504 22.6384 14.0166C27.7775 10.5828 33.8193 8.75 40 8.75C48.2852 8.7591 56.2285 12.0544 62.0871 17.913C67.9456 23.7715 71.2409 31.7148 71.25 40ZM68.75 40C68.75 34.3138 67.0639 28.7553 63.9048 24.0274C60.7457 19.2994 56.2555 15.6145 51.0022 13.4385C45.7488 11.2624 39.9681 10.6931 34.3912 11.8024C28.8142 12.9117 23.6915 15.6499 19.6707 19.6707C15.6499 23.6914 12.9118 28.8142 11.8024 34.3912C10.6931 39.9681 11.2625 45.7488 13.4385 51.0021C15.6145 56.2555 19.2995 60.7457 24.0274 63.9048C28.7553 67.0638 34.3138 68.75 40 68.75C47.6224 68.7417 54.9303 65.7101 60.3202 60.3202C65.7101 54.9303 68.7417 47.6224 68.75 40Z" fill="white"/>
</g>
<defs>
<clipPath id="clip0_0_648">
<rect width="80" height="80" fill="white"/>
</clipPath>
</defs>
</svg>
