<svg width="314" height="101" viewBox="0 0 314 101" fill="none" xmlns="http://www.w3.org/2000/svg">
<path d="M6.68907 91.1981C13.1808 82.4525 20.7778 74.4804 29.2858 67.4854C34.6386 62.9196 40.7718 58.0705 47.4532 53.0916C54.5781 47.7256 62.0465 42.8153 69.8047 38.396C73.9894 36.0307 78.3117 33.9218 82.7435 32.0828C87.3246 30.1224 92.0501 28.5502 96.8629 27.3852C101.784 26.1379 106.799 25.4458 111.804 25.3236C116.862 25.1307 121.874 25.5997 126.702 26.7178L127.494 26.924C127.329 27.1599 127.11 27.3841 126.92 27.6259C119.799 36.7946 115.807 47.725 115.544 58.7726C115.473 64.3727 116.591 69.8443 118.83 74.854C121.172 80.1033 124.922 84.5876 129.723 87.8788C132.193 89.6919 134.979 91.0927 137.974 92.0286C141.321 93.1017 144.935 93.4074 148.541 92.9225C152.037 92.3677 155.425 91.1167 158.485 89.2512C161.544 87.3857 164.206 84.9477 166.296 82.0967C170.08 76.9303 171.953 70.7823 171.589 64.7218C171.29 59.1677 169.847 53.8054 167.344 48.9414C164.927 44.135 161.723 39.7714 157.846 36.0048C152.995 31.3152 147.285 27.5154 140.961 24.7683C142.205 23.6916 143.515 22.6904 144.885 21.7716C152.928 16.2968 162.008 12.5238 171.468 10.7255C180.283 8.9918 189.222 8.5344 197.982 9.36882C205.639 10.0591 213.11 11.6536 220.231 14.1169C226.222 16.3481 231.951 19.11 237.349 22.3693C245.855 27.3802 253.693 33.3151 260.724 40.0678C265.481 44.5582 269.849 49.4148 273.791 54.5959C276.924 58.7764 279.035 61.9192 280.608 64.4016C282.013 66.5302 282.876 67.9749 283.595 69.0599L281.722 68.3467C276.382 66.3133 271.509 64.563 267.355 63.184C259.051 60.4495 253.595 59.059 253.119 60.0086C252.643 60.9582 257.048 63.7053 264.672 67.5604C268.489 69.5116 273.077 71.6984 278.241 74.0444L280.199 74.9344C281.036 75.3265 281.913 75.646 282.819 75.8892C283.403 76.0359 284.004 76.1325 284.614 76.1778C285.389 76.2369 286.178 76.191 286.956 76.0416C288.559 75.7338 290.055 74.9484 291.226 73.7996C292.629 72.2543 293.735 70.4894 294.486 68.5973L296.591 64.333C307.827 40.505 315.458 20.7058 313.536 20.1519C311.614 19.598 300.922 38.4485 289.661 62.2824L288.21 65.4319C287.778 64.0984 287.254 62.8002 286.639 61.5459C284.89 57.7643 282.834 54.1372 280.488 50.6961C276.692 44.9893 272.33 39.6701 267.458 34.8058C260.234 27.4616 252.071 21.0264 243.136 15.6331C237.273 12.0602 231.035 9.04686 224.503 6.63218C216.654 3.86562 208.402 2.08248 199.94 1.32435C190.178 0.390895 180.213 0.916295 170.395 2.88223C159.455 4.99779 148.969 9.41558 139.709 15.8105C137.033 17.643 134.538 19.7182 132.262 22.0045C131.194 21.7158 130.127 21.427 129.048 21.215C123.613 20.0382 117.983 19.5833 112.311 19.8625C106.811 20.1122 101.314 20.9764 95.9298 22.4375C90.7824 23.7862 85.739 25.5738 80.862 27.7782C76.2683 29.7816 71.7956 32.066 67.4732 34.6163C59.6144 39.2871 52.0831 44.4848 44.9404 50.167C38.2552 55.4094 32.2441 60.4511 26.9071 65.2921C18.4886 72.692 11.165 81.1692 5.17339 90.4495C3.61901 92.9292 2.25689 95.5064 1.09905 98.1583C0.366861 99.9807 0.0359841 100.871 0.186562 100.983C0.337139 101.095 2.32931 97.3501 6.73893 91.1863L6.68907 91.1981ZM134.248 31.8467C134.772 31.1566 135.354 30.5019 135.936 29.8471C142.09 32.439 147.609 36.1384 152.215 40.7594C155.57 44.1423 158.328 48.0377 160.393 52.3105C162.462 56.4823 163.621 61.0675 163.803 65.8029C164.002 70.3 162.553 74.8386 159.706 78.6365C158.33 80.5161 156.577 82.1242 154.563 83.3562C152.548 84.5882 150.316 85.4164 148.013 85.7868C143.331 86.0974 138.824 84.7257 135.37 81.9388C131.601 79.28 128.676 75.685 126.875 71.4965C125.122 67.3236 124.29 62.7906 124.432 58.169C124.545 53.5295 125.45 48.8833 127.112 44.4157C128.748 39.9271 131.144 35.6815 134.198 31.8585" fill="white" fill-opacity="0.3"/>
</svg>
